PathFileType	4	(X/Y/Z)	C:\Users\Basilio\Documents\Thesis Gigler\squatting_fais\c3dfiles\040\SLS_pre_front5\markers_experimental.trc
DataRate	CameraRate	NumFrames	NumMarkers	Units	OrigDataRate	OrigDataStartFrame	OrigNumFrames
200.000000	200.000000	4	62	mm	200.000000	163	1309
Frame#	Time	FHD			LBHD			RBHD			C7			T10			CLAV			LSHO			LUUPA			LMUPA			LDUPA			LLEP			LMEP			LRAD			LUL			LRFIN			RSHO			RUPA1			RMUPA			RDUPA			RLEP			RMEP			RRAD			RUL			RUFIN			LASI			RASI			USACR			LSACR			RSACR			LTHI1			LTHI2			LTHI3			LTHI4			LLFC			LMFC			LTIB1			LTIB2			LTIB3			LTIB4			LLMAL			LMMAL			LHEE			LMT1			LMT2			LMT5			RTHI			RTHI2			RTHI3			RTHI4			RLFC			RMFC			RTIB1			RTIB2			RTIB3			RTIB4			RLMAL			RMMAL			RHEE			RMT1			RMT2			RMT5			*61			
		X1	Y1	Z1	X2	Y2	Z2	X3	Y3	Z3	X4	Y4	Z4	X5	Y5	Z5	X6	Y6	Z6	X7	Y7	Z7	X8	Y8	Z8	X9	Y9	Z9	X10	Y10	Z10	X11	Y11	Z11	X12	Y12	Z12	X13	Y13	Z13	X14	Y14	Z14	X15	Y15	Z15	X16	Y16	Z16	X17	Y17	Z17	X18	Y18	Z18	X19	Y19	Z19	X20	Y20	Z20	X21	Y21	Z21	X22	Y22	Z22	X23	Y23	Z23	X24	Y24	Z24	X25	Y25	Z25	X26	Y26	Z26	X27	Y27	Z27	X28	Y28	Z28	X29	Y29	Z29	X30	Y30	Z30	X31	Y31	Z31	X32	Y32	Z32	X33	Y33	Z33	X34	Y34	Z34	X35	Y35	Z35	X36	Y36	Z36	X37	Y37	Z37	X38	Y38	Z38	X39	Y39	Z39	X40	Y40	Z40	X41	Y41	Z41	X42	Y42	Z42	X43	Y43	Z43	X44	Y44	Z44	X45	Y45	Z45	X46	Y46	Z46	X47	Y47	Z47	X48	Y48	Z48	X49	Y49	Z49	X50	Y50	Z50	X51	Y51	Z51	X52	Y52	Z52	X53	Y53	Z53	X54	Y54	Z54	X55	Y55	Z55	X56	Y56	Z56	X57	Y57	Z57	X58	Y58	Z58	X59	Y59	Z59	X60	Y60	Z60	X61	Y61	Z61	X62	Y62	Z62	

164	0.8150000000000001	-133.6250762939453	1735.8955078125	-1131.898803710938	-266.3032226562501	1723.20458984375	-1174.519775390625	-328.9928894042969	1702.535766601563	-1042.975463867188	-367.4672851562501	1566.9189453125	-1086.793579101563	-417.087860107422	1247.434692382813	-1073.227783203125	-247.8740844726563	1484.107543945313	-1090.297119140625	-316.1174926757813	1520.791625976563	-1262.02294921875	-333.1958923339844	1305.2568359375	-1328.338134765625	-292.8334350585938	1284.755981445313	-1310.015747070313	-328.7158813476563	1236.280029296875	-1327.709594726563	-335.6770324707032	1172.894775390625	-1319.807006835938	-365.7158813476563	1168.259521484375	-1259.45068359375	-156.7689666748047	962.3074951171877	-1241.047973632813	-196.9124298095704	936.1814575195315	-1301.010864257813	-108.4001159667969	883.1717529296877	-1247.660522460938	-290.6766662597657	1507.023803710938	-917.4602050781252	-330.5254211425782	1297.67822265625	-832.890319824219	-289.9401245117188	1275.229125976563	-845.6754150390627	-325.1859436035157	1229.136352539063	-831.3446044921877	-316.9894409179688	1167.110473632813	-829.8276367187502	-340.1566162109376	1154.79345703125	-902.936462402344	-139.4276885986328	938.0124511718752	-858.8140869140627	-196.9752807617188	918.5328369140627	-814.2841796875002	-100.3018951416016	859.1209106445315	-827.532653808594	-230.0994873046876	1073.939575195313	-1174.738525390625	-238.8306732177735	1077.775634765625	-944.4199218750002	-421.5814208984376	1103.640747070313	-1060.579956054688	-425.6790466308595	1074.105712890625	-1088.162353515625	-429.2197570800782	1073.326538085938	-1032.437622070313	-328.6598815917969	810.4646606445315	-1219.876220703125	-283.6840209960938	738.2308959960939	-1219.376220703125	-238.6226806640626	746.4769897460939	-1223.958740234375	-301.7280273437501	684.0575561523439	-1204.596435546875	-276.5148620605469	552.3465576171876	-1186.124389648438	-272.7133483886719	541.8947753906251	-1054.673706054688	-254.9232940673829	328.4149169921876	-1129.767211914063	-329.8300476074219	292.3206481933594	-1163.041015625	-287.0292968750001	283.1155700683594	-1150.593872070313	-283.7695312500001	208.5815429687501	-1108.5546875	-357.3377380371094	125.6862335205078	-1107.002563476563	-317.6333618164063	141.4474487304688	-1030.584350585938	-413.5947265625001	96.27443695068362	-1050.462646484375	-199.9079589843751	60.17905807495119	-1051.354736328125	-204.8762512207032	51.6627655029297	-1097.414306640625	-260.6396484375001	36.09267044067384	-1138.895629882813	-244.5669403076172	803.5477294921877	-872.6551513671877	-199.7277832031251	753.6554565429689	-877.513366699219	-169.2541198730469	763.0725097656251	-881.9108886718752	-214.0294342041016	673.9473266601564	-891.1526489257815	-187.1194152832032	544.6499633789064	-901.7515869140627	-179.1335144042969	540.7071533203126	-1035.25146484375	-143.3921051025391	357.6304016113282	-925.5634765625002	-220.4829406738282	284.4435119628907	-904.2991333007815	-175.9544067382813	278.4966125488282	-913.4720458984377	-160.4738311767578	231.5845794677735	-946.0012207031252	-216.6763000488282	116.8383255004883	-926.9956665039065	-195.9243927001954	136.7142028808594	-1012.718444824219	-274.0028381347657	66.67579650878908	-986.4243164062502	-52.87750244140626	84.44986724853517	-987.154479980469	-58.60744094848634	84.52014923095705	-947.4106445312502	-98.69012451171878	53.2075653076172	-898.4246215820315	nan	nan	nan	
165	0.8200000000000001	-134.0201721191407	1735.757446289063	-1132.17041015625	-266.5625915527344	1723.13037109375	-1174.880981445313	-329.2685241699219	1702.632690429688	-1043.351318359375	-367.8162536621094	1566.940551757813	-1087.140747070313	-417.3685913085939	1247.381469726563	-1073.712524414063	-248.1987304687501	1484.081665039063	-1090.575805664063	-316.1393432617188	1520.910400390625	-1262.298950195313	-332.9829711914063	1305.314208984375	-1328.687744140625	-292.6849365234376	1284.81005859375	-1310.248901367188	-328.4821777343751	1236.305786132813	-1328.06103515625	-335.6770935058594	1173.149658203125	-1320.182739257813	-365.4442138671876	1168.285400390625	-1259.809936523438	-155.9744110107422	962.9896240234377	-1241.102416992188	-196.1824493408204	936.3824462890627	-1300.884765625	-108.0581588745117	883.207458496094	-1247.339477539063	-291.0313110351563	1507.264282226563	-917.9678344726565	-330.3180541992188	1297.987915039063	-833.0944824218752	-289.8176574707032	1275.99462890625	-846.0484008789065	-324.5039062500001	1229.576904296875	-831.4278564453127	-316.3609313964844	1167.648803710938	-829.9927368164065	-340.1083679199219	1155.228759765625	-902.8198852539065	-139.3020172119141	937.9253540039065	-859.9678955078127	-196.6988220214844	918.7659912109377	-814.869079589844	-100.2747497558594	859.3968505859377	-828.6387939453127	-229.9959564208985	1074.005249023438	-1175.026123046875	-239.2407989501954	1077.908325195313	-944.5920410156252	-421.7237854003907	1103.64794921875	-1061.082641601563	-425.8735656738282	1074.06640625	-1088.586669921875	-429.4625854492189	1073.367553710938	-1032.797607421875	-328.5267028808594	810.317077636719	-1219.851440429688	-283.6598815917969	738.1359863281251	-1219.300170898438	-238.4405212402344	746.3472290039064	-1223.875366210938	-301.4396057128907	683.9348144531251	-1204.372314453125	-276.2153625488282	552.3801269531251	-1185.809204101563	-272.3951721191407	541.9758911132814	-1054.443969726563	-254.8258209228516	328.3924255371094	-1129.594604492188	-329.6945495605469	292.4237670898438	-1162.904052734375	-286.8916320800782	282.5495300292969	-1150.65966796875	-283.7057189941407	208.5744171142579	-1108.499145507813	-356.8906860351563	125.4311676025391	-1106.860595703125	-317.5863037109376	141.458251953125	-1030.5341796875	-413.6122436523439	96.26625823974612	-1050.468627929688	-200.0157623291016	60.16140747070314	-1051.258056640625	-204.8175201416016	51.62926101684572	-1097.393920898438	-260.8524780273438	36.21263504028321	-1138.905639648438	-245.2457885742188	803.7935791015627	-872.5923461914065	-200.0098419189454	753.9066772460939	-877.4119873046877	-169.5769653320313	763.2954101562501	-881.950866699219	-214.6349487304688	674.2398681640626	-891.1433105468752	-186.8793334960938	544.7825927734376	-901.809753417969	-179.2840118408203	541.1564941406251	-1035.317504882813	-140.8592834472657	358.0394592285157	-925.8295898437502	-217.4490661621094	284.2431945800782	-904.8076782226565	-173.1847229003907	278.3159179687501	-913.9362792968752	-156.4601593017578	231.6211395263672	-946.4705810546877	-211.130844116211	116.6255416870117	-927.4777832031252	-190.472396850586	136.5486145019532	-1013.254577636719	-268.2349243164063	66.22219848632814	-987.0754394531252	-47.32164764404298	85.57984924316408	-987.6550903320315	-53.00622558593751	85.78736877441408	-947.5710449218752	-93.16053009033205	53.67897415161134	-898.7535400390627	nan	nan	nan	
166	0.8250000000000001	-134.336410522461	1735.810424804688	-1132.339965820313	-266.9501342773438	1723.061889648438	-1175.23681640625	-329.7570495605469	1702.547973632813	-1043.783813476563	-368.2443237304688	1566.91552734375	-1087.562622070313	-417.5794982910157	1247.37548828125	-1074.199096679688	-248.6594848632813	1483.973876953125	-1090.734985351563	-316.4453430175782	1520.8310546875	-1262.324584960938	-332.7235107421876	1305.333984375	-1329.018310546875	-292.4987487792969	1284.925170898438	-1310.51171875	-328.1488037109376	1236.262451171875	-1328.383666992188	-335.2857055664063	1173.196655273438	-1320.529174804688	-365.0411376953126	1168.30224609375	-1260.157470703125	-155.3534240722657	962.012145996094	-1241.231689453125	-195.4862365722657	936.588073730469	-1300.822021484375	-107.6837844848633	883.460876464844	-1246.946166992188	-291.2331237792969	1507.576049804688	-918.2664184570315	-329.9234619140626	1298.539916992188	-833.439880371094	-289.6463317871094	1276.486083984375	-846.1961059570315	-324.0521850585938	1230.062744140625	-831.436950683594	-315.4950256347657	1167.704223632813	-829.8648681640627	-339.9469299316407	1155.59521484375	-902.6507568359377	-139.3416290283203	938.275817871094	-861.1055908203127	-196.4570465087891	919.1316528320315	-815.518005371094	-100.0715942382813	859.329040527344	-829.7106933593752	-230.0157623291016	1074.020141601563	-1175.254760742188	-239.436019897461	1078.562255859375	-944.796325683594	-421.8168029785157	1103.921142578125	-1061.519897460938	-426.0242004394532	1074.021850585938	-1088.974731445313	-429.5633544921876	1073.343627929688	-1033.174560546875	-328.4058837890626	810.2107543945315	-1219.793823242188	-283.4649658203126	738.1024169921876	-1219.244873046875	-238.2544250488282	746.4298706054689	-1223.686889648438	-301.2773437500001	683.8610839843751	-1204.184936523438	-275.9160766601563	552.4031982421876	-1185.573486328125	-272.2267456054688	542.0137329101564	-1054.178955078125	-254.723861694336	328.4125061035157	-1129.437622070313	-329.4918212890626	292.4807128906251	-1162.776977539063	-286.9234619140626	282.5315246582032	-1150.396484375	-283.6270751953126	208.7208862304688	-1108.406127929688	-357.0042419433594	125.73486328125	-1106.742553710938	-317.5762939453126	141.4069519042969	-1030.494750976563	-413.5870056152345	96.29038238525393	-1050.410034179688	-199.887680053711	60.2283401489258	-1051.246337890625	-204.8179321289063	51.64053344726564	-1097.306518554688	-260.7733154296876	36.17137145996094	-1138.838256835938	-245.5404815673829	803.8259887695315	-872.672546386719	-200.8453063964844	753.9263916015626	-877.033630371094	-170.1622009277344	763.8729858398439	-881.866149902344	-215.1825561523438	674.3707885742189	-891.1738891601565	-186.7412261962891	544.7827148437501	-902.0412597656252	-178.9362335205078	541.2987670898439	-1035.311889648438	-139.0407867431641	358.5822753906251	-925.7825927734377	-214.6380767822266	283.6510925292969	-905.3562622070315	-170.047119140625	278.6824340820313	-914.1459960937502	-152.4433135986328	231.8335571289063	-946.7647094726565	-206.3278808593751	116.0829315185547	-928.3750000000002	-185.2954864501953	136.6882781982422	-1013.72998046875	-261.9375915527344	65.19673919677736	-987.7879028320315	-41.43573379516602	86.63801574707033	-987.6857910156252	-47.24614334106446	86.71228027343751	-948.4229125976565	-86.91249847412111	53.77952194213869	-899.434753417969	nan	nan	nan	
167	0.8300000000000001	-134.6750793457032	1735.7109375	-1132.533325195313	-267.3218688964844	1722.930541992188	-1175.635009765625	-330.3504333496094	1702.730224609375	-1044.207885742188	-368.4961242675782	1566.94921875	-1087.906616210938	-418.238250732422	1247.039184570313	-1074.801391601563	-248.9741210937501	1483.857421875	-1091.05078125	-316.0515747070313	1520.982055664063	-1262.8974609375	-332.4301757812501	1305.429077148438	-1329.432006835938	-292.2726135253907	1284.910034179688	-1310.832641601563	-327.9094238281251	1236.2607421875	-1328.7060546875	-334.8159790039063	1173.218383789063	-1320.865234375	-364.6697998046876	1168.288452148438	-1260.488159179688	-154.9400482177735	962.250427246094	-1241.129272460938	-194.9632720947266	936.8752441406252	-1300.76220703125	-107.4079208374024	883.5618286132815	-1246.562133789063	-291.5344848632813	1507.787475585938	-918.6860961914065	-329.6542663574219	1298.861083984375	-833.568054199219	-289.3312988281251	1276.890625	-846.342224121094	-323.7858886718751	1230.463256835938	-831.6213378906252	-314.9017639160157	1168.776123046875	-830.1322021484377	-339.6196289062501	1155.989624023438	-902.4116821289065	-139.2262420654297	938.1496582031252	-862.1258544921877	-196.232162475586	919.5375976562502	-816.109802246094	-99.94231414794925	859.4209594726565	-830.8784179687502	-229.9396057128907	1074.0029296875	-1175.468017578125	-239.5936584472657	1078.696166992188	-944.960876464844	-421.9822387695314	1103.491455078125	-1061.958740234375	-426.1146240234376	1073.88232421875	-1089.355102539063	-429.5998535156251	1073.2958984375	-1033.504760742188	-328.3474121093751	810.0726318359377	-1219.71826171875	-283.2850036621094	738.0438842773439	-1219.179077148438	-238.0780181884766	746.3293457031251	-1223.528564453125	-300.9901733398438	683.7584228515626	-1203.88232421875	-275.5126342773438	552.4403076171876	-1185.33203125	-271.9164733886719	542.0181884765626	-1053.876708984375	-254.4984283447266	328.2898254394532	-1129.119506835938	-329.4065246582032	292.5334472656251	-1162.671264648438	-286.8351135253907	282.5135192871094	-1150.236328125	-283.7119140625001	208.4735260009766	-1108.20556640625	-357.4785766601563	126.1798248291016	-1106.572631835938	-317.4851379394532	141.3614044189453	-1030.402221679688	-413.5660095214845	96.34373474121097	-1050.3603515625	-199.6774291992188	60.14027023315431	-1051.257202148438	-204.8702239990235	51.63325119018556	-1097.225830078125	-260.6784362792969	36.16290664672852	-1138.786376953125	-245.9565734863282	804.2026367187502	-872.594177246094	-201.1434783935547	753.9600219726564	-877.223327636719	-170.7415161132813	764.4254150390626	-881.7580566406252	-215.6024017333985	674.5742187500001	-891.1445312500002	-186.5743865966797	544.7473144531251	-902.1220703125002	-178.5084991455078	541.6249389648439	-1035.462890625	-136.2439270019532	359.3807678222657	-926.171081542969	-211.3484039306641	282.6038208007813	-905.5952148437502	-166.5264587402344	278.7997131347657	-914.492370605469	-148.5450439453125	232.7616729736329	-946.7673339843752	-200.0909271240235	116.0380325317383	-928.3718872070315	-180.0682983398438	136.79736328125	-1013.921142578125	-256.0274963378907	64.84654235839845	-988.4689941406252	-35.73704910278321	87.95507049560548	-988.393737792969	-41.33025360107423	88.02127838134767	-948.547302246094	-81.21800994873048	54.90246200561525	-899.7437744140627	nan	nan	nan	
